<svg xmlns="http://www.w3.org/2000/svg" style="display:none">
  <!-- Brand line-icon set. Navy #14323f outlines, green #2f6b57 accents.
       Each symbol is 48x48; stroke styles inherit from the symbol element. -->

  <!-- ============ Pricing — Tiers (growth metaphor: seed -> sprout -> tree) ============ -->
  <symbol id="ic-seed" viewBox="0 0 48 48" fill="none" stroke="#14323f" stroke-width="2.5" stroke-linecap="round" stroke-linejoin="round">
    <path d="M24 10 C30 18 32 25 32 29 a8 8 0 0 1 -16 0 C16 25 18 18 24 10 Z"/>
    <path stroke="#2f6b57" d="M20.5 30 a3.5 3.5 0 0 0 3.5 3.5"/>
  </symbol>
  <symbol id="ic-sprout" viewBox="0 0 48 48" fill="none" stroke="#14323f" stroke-width="2.5" stroke-linecap="round" stroke-linejoin="round">
    <path d="M24 40 V24"/>
    <path d="M17 40 H31"/>
    <path stroke="#2f6b57" d="M24 28 C19 28 15 24 15 19 C20 19 24 23 24 28 Z"/>
    <path stroke="#2f6b57" d="M24 25 C29 25 33 21 33 16 C28 16 24 20 24 25 Z"/>
  </symbol>
  <symbol id="ic-tree" viewBox="0 0 48 48" fill="none" stroke="#14323f" stroke-width="2.5" stroke-linecap="round" stroke-linejoin="round">
    <path d="M24 40 V27"/>
    <path d="M19 40 H29"/>
    <path stroke="#2f6b57" d="M24 8 C17 8 13 13 15 18 C11 20 12 27 18 27 H30 C36 27 37 20 33 18 C35 13 31 8 24 8 Z"/>
  </symbol>

  <!-- ============ Services — 4 pillars ============ -->
  <symbol id="ic-found" viewBox="0 0 48 48" fill="none" stroke="#14323f" stroke-width="2.5" stroke-linecap="round" stroke-linejoin="round">
    <circle cx="21" cy="21" r="12"/>
    <line x1="30" y1="30" x2="40" y2="40" stroke-width="3"/>
    <path stroke="#2f6b57" d="M21 15 L22.6 19.4 L27 21 L22.6 22.6 L21 27 L19.4 22.6 L15 21 L19.4 19.4 Z"/>
  </symbol>
  <symbol id="ic-ai-time" viewBox="0 0 48 48" fill="none" stroke="#14323f" stroke-width="2.5" stroke-linecap="round" stroke-linejoin="round">
    <circle cx="24" cy="24" r="14"/>
    <path d="M24 24 V16"/>
    <path stroke="#2f6b57" d="M24 24 H31"/>
  </symbol>
  <symbol id="ic-retain" viewBox="0 0 48 48" fill="none" stroke="#14323f" stroke-width="2.5" stroke-linecap="round" stroke-linejoin="round">
    <circle cx="18" cy="16" r="6"/>
    <path d="M7 34 C7 25 29 25 29 34"/>
    <path stroke="#2f6b57" d="M34 23 l6 2.5 v5 c0 4.5 -3.5 7 -6 8 c-2.5 -1 -6 -3.5 -6 -8 v-5 z"/>
    <path stroke="#2f6b57" d="M31.5 31.5 l2 2 l3.5 -4"/>
  </symbol>
  <symbol id="ic-modernize" viewBox="0 0 48 48" fill="none" stroke="#14323f" stroke-width="2.5" stroke-linecap="round" stroke-linejoin="round">
    <rect x="8" y="10" width="32" height="28" rx="3"/>
    <path d="M8 18 H40"/>
    <path stroke="#2f6b57" d="M18.5 29 a5.5 5.5 0 0 1 9.4 -3.9"/>
    <path stroke="#2f6b57" d="M29.5 29 a5.5 5.5 0 0 1 -9.4 3.9"/>
    <path stroke="#2f6b57" d="M28 21 v4 h-4"/>
    <path stroke="#2f6b57" d="M20 37 v-4 h4"/>
  </symbol>

  <!-- ============ About — Values ============ -->
  <symbol id="ic-practical" viewBox="0 0 48 48" fill="none" stroke="#14323f" stroke-width="2.5" stroke-linecap="round" stroke-linejoin="round">
    <rect x="12" y="10" width="22" height="30" rx="3"/>
    <path d="M18 10 v-2 a2 2 0 0 1 2 -2 h6 a2 2 0 0 1 2 2 v2"/>
    <path d="M17 20 H29"/>
    <path d="M17 26 H26"/>
    <path stroke="#2f6b57" d="M30 28 a3.5 3.5 0 0 0 4.6 4.6 l3.4 3.4 a1.6 1.6 0 0 1 -2.2 2.2 l-3.4 -3.4 a3.5 3.5 0 0 1 -4.6 -4.6 z"/>
  </symbol>
  <symbol id="ic-tools" viewBox="0 0 48 48" fill="none" stroke="#14323f" stroke-width="2.5" stroke-linecap="round" stroke-linejoin="round">
    <circle cx="22" cy="24" r="7"/>
    <circle cx="22" cy="24" r="2.5"/>
    <path d="M22 13 v3 M22 32 v3 M11 24 h3 M30 24 h3 M14.4 16.4 l2.1 2.1 M27.5 29.5 l2.1 2.1 M29.6 16.4 l-2.1 2.1 M16.5 29.5 l-2.1 2.1"/>
    <path stroke="#2f6b57" d="M35 14 v8 M31 18 h8"/>
  </symbol>
  <symbol id="ic-control" viewBox="0 0 48 48" fill="none" stroke="#14323f" stroke-width="2.5" stroke-linecap="round" stroke-linejoin="round">
    <path d="M10 16 H38"/>
    <path d="M10 24 H38"/>
    <path d="M10 32 H38"/>
    <circle stroke="#2f6b57" fill="#fff" cx="18" cy="16" r="3"/>
    <circle stroke="#2f6b57" fill="#fff" cx="31" cy="24" r="3"/>
    <circle stroke="#2f6b57" fill="#fff" cx="23" cy="32" r="3"/>
  </symbol>
  <symbol id="ic-clarity" viewBox="0 0 48 48" fill="none" stroke="#14323f" stroke-width="2.5" stroke-linecap="round" stroke-linejoin="round">
    <path d="M6 24 C14 14 34 14 42 24 C34 34 14 34 6 24 Z"/>
    <circle cx="24" cy="24" r="5"/>
    <circle stroke="none" fill="#2f6b57" cx="24" cy="24" r="2"/>
  </symbol>
  <symbol id="ic-community" viewBox="0 0 48 48" fill="none" stroke="#14323f" stroke-width="2.5" stroke-linecap="round" stroke-linejoin="round">
    <circle stroke="#2f6b57" cx="24" cy="16" r="5"/>
    <path stroke="#2f6b57" d="M16 32 c0 -7 16 -7 16 0"/>
    <circle cx="11" cy="20" r="4"/>
    <path d="M5 33 c0 -6 12 -6 12 0"/>
    <circle cx="37" cy="20" r="4"/>
    <path d="M31 33 c0 -6 12 -6 12 0"/>
  </symbol>
  <symbol id="ic-human" viewBox="0 0 48 48" fill="none" stroke="#14323f" stroke-width="2.5" stroke-linecap="round" stroke-linejoin="round">
    <circle cx="24" cy="15" r="7"/>
    <path stroke="#2f6b57" d="M11 38 c0 -10 26 -10 26 0"/>
  </symbol>
</svg>
