<svg xmlns="http://www.w3.org/2000/svg" style="display:none">
  <!-- Brand line-icon set. Navy #14323f outlines, green #2f6b57 accents.
       Each symbol is 48x48; stroke styles inherit from the symbol element. -->

  <!-- ============ Pricing — Tiers (growth metaphor: seed -> sprout -> tree) ============ -->
  <symbol id="ic-seed" viewBox="0 0 48 48" fill="none" stroke="#14323f" stroke-width="2.5" stroke-linecap="round" stroke-linejoin="round">
    <path d="M24 10 C30 18 32 25 32 29 a8 8 0 0 1 -16 0 C16 25 18 18 24 10 Z"/>
    <path stroke="#2f6b57" d="M20.5 30 a3.5 3.5 0 0 0 3.5 3.5"/>
  </symbol>
  <symbol id="ic-sprout" viewBox="0 0 48 48" fill="none" stroke="#14323f" stroke-width="2.5" stroke-linecap="round" stroke-linejoin="round">
    <path d="M24 40 V24"/>
    <path d="M17 40 H31"/>
    <path stroke="#2f6b57" d="M24 28 C19 28 15 24 15 19 C20 19 24 23 24 28 Z"/>
    <path stroke="#2f6b57" d="M24 25 C29 25 33 21 33 16 C28 16 24 20 24 25 Z"/>
  </symbol>
  <symbol id="ic-tree" viewBox="0 0 48 48" fill="none" stroke="#14323f" stroke-width="2.5" stroke-linecap="round" stroke-linejoin="round">
    <path d="M24 40 V27"/>
    <path d="M19 40 H29"/>
    <path stroke="#2f6b57" d="M24 8 C17 8 13 13 15 18 C11 20 12 27 18 27 H30 C36 27 37 20 33 18 C35 13 31 8 24 8 Z"/>
  </symbol>
</svg>
