<svg xmlns="http://www.w3.org/2000/svg" style="display:none">
  <!-- Brand line-icon set. Navy #14323f outlines, green #2f6b57 accents.
       Each symbol is 48x48; stroke styles inherit from the symbol element. -->

  <!-- ============ Pricing — Tiers (growth metaphor: seed -> sprout -> tree) ============ -->
  <symbol id="ic-seed" viewBox="0 0 48 48" fill="none" stroke="#14323f" stroke-width="2.5" stroke-linecap="round" stroke-linejoin="round">
    <path d="M24 10 C30 18 32 25 32 29 a8 8 0 0 1 -16 0 C16 25 18 18 24 10 Z"/>
    <path stroke="#2f6b57" d="M20.5 30 a3.5 3.5 0 0 0 3.5 3.5"/>
  </symbol>
  <symbol id="ic-sprout" viewBox="0 0 48 48" fill="none" stroke="#14323f" stroke-width="2.5" stroke-linecap="round" stroke-linejoin="round">
    <path d="M24 40 V24"/>
    <path d="M17 40 H31"/>
    <path stroke="#2f6b57" d="M24 28 C19 28 15 24 15 19 C20 19 24 23 24 28 Z"/>
    <path stroke="#2f6b57" d="M24 25 C29 25 33 21 33 16 C28 16 24 20 24 25 Z"/>
  </symbol>
  <symbol id="ic-tree" viewBox="0 0 48 48" fill="none" stroke="#14323f" stroke-width="2.5" stroke-linecap="round" stroke-linejoin="round">
    <path d="M24 40 V27"/>
    <path d="M19 40 H29"/>
    <path stroke="#2f6b57" d="M24 8 C17 8 13 13 15 18 C11 20 12 27 18 27 H30 C36 27 37 20 33 18 C35 13 31 8 24 8 Z"/>
  </symbol>

  <!-- ============ Services — 4 pillars ============ -->
  <symbol id="ic-found" viewBox="0 0 48 48" fill="none" stroke="#14323f" stroke-width="2.5" stroke-linecap="round" stroke-linejoin="round">
    <circle cx="21" cy="21" r="12"/>
    <line x1="30" y1="30" x2="40" y2="40" stroke-width="3"/>
    <path stroke="#2f6b57" d="M21 15 L22.6 19.4 L27 21 L22.6 22.6 L21 27 L19.4 22.6 L15 21 L19.4 19.4 Z"/>
  </symbol>
  <symbol id="ic-ai-time" viewBox="0 0 48 48" fill="none" stroke="#14323f" stroke-width="2.5" stroke-linecap="round" stroke-linejoin="round">
    <circle cx="24" cy="24" r="14"/>
    <path d="M24 24 V16"/>
    <path stroke="#2f6b57" d="M24 24 H31"/>
  </symbol>
  <symbol id="ic-retain" viewBox="0 0 48 48" fill="none" stroke="#14323f" stroke-width="2.5" stroke-linecap="round" stroke-linejoin="round">
    <circle cx="18" cy="16" r="6"/>
    <path d="M7 34 C7 25 29 25 29 34"/>
    <path stroke="#2f6b57" d="M34 23 l6 2.5 v5 c0 4.5 -3.5 7 -6 8 c-2.5 -1 -6 -3.5 -6 -8 v-5 z"/>
    <path stroke="#2f6b57" d="M31.5 31.5 l2 2 l3.5 -4"/>
  </symbol>
  <symbol id="ic-modernize" viewBox="0 0 48 48" fill="none" stroke="#14323f" stroke-width="2.5" stroke-linecap="round" stroke-linejoin="round">
    <rect x="8" y="10" width="32" height="28" rx="3"/>
    <path d="M8 18 H40"/>
    <path stroke="#2f6b57" d="M18.5 29 a5.5 5.5 0 0 1 9.4 -3.9"/>
    <path stroke="#2f6b57" d="M29.5 29 a5.5 5.5 0 0 1 -9.4 3.9"/>
    <path stroke="#2f6b57" d="M28 21 v4 h-4"/>
    <path stroke="#2f6b57" d="M20 37 v-4 h4"/>
  </symbol>

  <!-- ============ About — Values ============ -->
  <symbol id="ic-practical" viewBox="0 0 48 48" fill="none" stroke="#14323f" stroke-width="2.5" stroke-linecap="round" stroke-linejoin="round">
    <rect x="12" y="10" width="22" height="30" rx="3"/>
    <path d="M18 10 v-2 a2 2 0 0 1 2 -2 h6 a2 2 0 0 1 2 2 v2"/>
    <path d="M17 20 H29"/>
    <path d="M17 26 H26"/>
    <path stroke="#2f6b57" d="M30 28 a3.5 3.5 0 0 0 4.6 4.6 l3.4 3.4 a1.6 1.6 0 0 1 -2.2 2.2 l-3.4 -3.4 a3.5 3.5 0 0 1 -4.6 -4.6 z"/>
  </symbol>
  <symbol id="ic-tools" viewBox="0 0 48 48" fill="none" stroke="#14323f" stroke-width="2.5" stroke-linecap="round" stroke-linejoin="round">
    <circle cx="22" cy="24" r="7"/>
    <circle cx="22" cy="24" r="2.5"/>
    <path d="M22 13 v3 M22 32 v3 M11 24 h3 M30 24 h3 M14.4 16.4 l2.1 2.1 M27.5 29.5 l2.1 2.1 M29.6 16.4 l-2.1 2.1 M16.5 29.5 l-2.1 2.1"/>
    <path stroke="#2f6b57" d="M35 14 v8 M31 18 h8"/>
  </symbol>
  <symbol id="ic-control" viewBox="0 0 48 48" fill="none" stroke="#14323f" stroke-width="2.5" stroke-linecap="round" stroke-linejoin="round">
    <path d="M10 16 H38"/>
    <path d="M10 24 H38"/>
    <path d="M10 32 H38"/>
    <circle stroke="#2f6b57" fill="#fff" cx="18" cy="16" r="3"/>
    <circle stroke="#2f6b57" fill="#fff" cx="31" cy="24" r="3"/>
    <circle stroke="#2f6b57" fill="#fff" cx="23" cy="32" r="3"/>
  </symbol>
  <symbol id="ic-clarity" viewBox="0 0 48 48" fill="none" stroke="#14323f" stroke-width="2.5" stroke-linecap="round" stroke-linejoin="round">
    <path d="M6 24 C14 14 34 14 42 24 C34 34 14 34 6 24 Z"/>
    <circle cx="24" cy="24" r="5"/>
    <circle stroke="none" fill="#2f6b57" cx="24" cy="24" r="2"/>
  </symbol>
  <symbol id="ic-community" viewBox="0 0 48 48" fill="none" stroke="#14323f" stroke-width="2.5" stroke-linecap="round" stroke-linejoin="round">
    <circle stroke="#2f6b57" cx="24" cy="16" r="5"/>
    <path stroke="#2f6b57" d="M16 32 c0 -7 16 -7 16 0"/>
    <circle cx="11" cy="20" r="4"/>
    <path d="M5 33 c0 -6 12 -6 12 0"/>
    <circle cx="37" cy="20" r="4"/>
    <path d="M31 33 c0 -6 12 -6 12 0"/>
  </symbol>
  <symbol id="ic-human" viewBox="0 0 48 48" fill="none" stroke="#14323f" stroke-width="2.5" stroke-linecap="round" stroke-linejoin="round">
    <circle cx="24" cy="15" r="7"/>
    <path stroke="#2f6b57" d="M11 38 c0 -10 26 -10 26 0"/>
  </symbol>

  <!-- ============ Pricing — Monthly care ============ -->
  <symbol id="ic-care-light" viewBox="0 0 48 48" fill="none" stroke="#14323f" stroke-width="2.5" stroke-linecap="round" stroke-linejoin="round">
    <path d="M24 8 L38 13 V24 C38 33 31 38 24 41 C17 38 10 33 10 24 V13 Z"/>
    <path stroke="#2f6b57" d="M15 25 H20 L23 19 L26 30 L29 25 H33"/>
  </symbol>
  <symbol id="ic-care-steady" viewBox="0 0 48 48" fill="none" stroke="#14323f" stroke-width="2.5" stroke-linecap="round" stroke-linejoin="round">
    <path d="M24 8 L38 13 V24 C38 33 31 38 24 41 C17 38 10 33 10 24 V13 Z"/>
    <path stroke="#2f6b57" d="M17 24 l5 5 l9 -11"/>
  </symbol>
  <symbol id="ic-care-full" viewBox="0 0 48 48" fill="none" stroke="#14323f" stroke-width="2.5" stroke-linecap="round" stroke-linejoin="round">
    <path d="M24 9 L37 13.5 V24 C37 32 31 37 24 40 C17 37 11 32 11 24 V13.5 Z"/>
    <path stroke="#2f6b57" d="M18 24 l4.5 4.5 l8 -10"/>
    <path stroke="#2f6b57" d="M38 9 l1 3 l3 1 l-3 1 l-1 3 l-1 -3 l-3 -1 l3 -1 z"/>
    <circle stroke="none" fill="#2f6b57" cx="9" cy="14" r="1.4"/>
  </symbol>

  <!-- ============ Payment options ============ -->
  <symbol id="ic-pay-5050" viewBox="0 0 48 48" fill="none" stroke="#14323f" stroke-width="2.5" stroke-linecap="round" stroke-linejoin="round">
    <path d="M24 9 a15 15 0 0 0 0 30 Z" fill="#2f6b57" stroke="none"/>
    <circle cx="24" cy="24" r="15"/>
    <path d="M24 9 V39"/>
  </symbol>
  <symbol id="ic-pay-split" viewBox="0 0 48 48" fill="none" stroke="#14323f" stroke-width="2.5" stroke-linecap="round" stroke-linejoin="round">
    <rect x="12" y="8" width="24" height="32" rx="3"/>
    <path d="M18 31 H30"/>
    <path d="M18 35 H26"/>
    <path stroke="#2f6b57" d="M24 13 v15"/>
    <path stroke="#2f6b57" d="M28 16.5 a3.2 3.2 0 0 0 -4 -2 a2.8 2.8 0 0 0 0 5.2 a2.8 2.8 0 0 1 0 5.2 a3.2 3.2 0 0 1 -4 -2"/>
  </symbol>
  <symbol id="ic-pay-setup" viewBox="0 0 48 48" fill="none" stroke="#14323f" stroke-width="2.5" stroke-linecap="round" stroke-linejoin="round">
    <rect x="9" y="8" width="20" height="32" rx="3"/>
    <path d="M14 16 H24"/>
    <path d="M14 21 H24"/>
    <path d="M14 26 H21"/>
    <path stroke="#2f6b57" d="M30 31 a5 5 0 1 0 1.6 -3.7"/>
    <path stroke="#2f6b57" d="M31.5 22.5 v4 h-4"/>
  </symbol>

  <!-- ============ Add-ons ============ -->
  <symbol id="ic-page" viewBox="0 0 48 48" fill="none" stroke="#14323f" stroke-width="2.5" stroke-linecap="round" stroke-linejoin="round">
    <rect x="8" y="10" width="32" height="28" rx="3"/>
    <path d="M8 17 H40"/>
    <path stroke="#2f6b57" d="M14 33 l6 -7 l5 5 l3 -3 l6 5"/>
    <circle stroke="#2f6b57" cx="16" cy="23" r="2"/>
  </symbol>
  <symbol id="ic-menu" viewBox="0 0 48 48" fill="none" stroke="#14323f" stroke-width="2.5" stroke-linecap="round" stroke-linejoin="round">
    <rect x="10" y="8" width="28" height="34" rx="3"/>
    <path stroke="#2f6b57" d="M17.5 20 a6.5 6.5 0 0 1 13 0 z"/>
    <path stroke="#2f6b57" d="M15.5 20 H32.5"/>
    <path stroke="#2f6b57" d="M24 13 v1.5"/>
    <path d="M16 28 H32"/>
    <path d="M16 33 H27"/>
  </symbol>
  <symbol id="ic-booking" viewBox="0 0 48 48" fill="none" stroke="#14323f" stroke-width="2.5" stroke-linecap="round" stroke-linejoin="round">
    <rect x="9" y="11" width="30" height="28" rx="3"/>
    <path d="M9 19 H39"/>
    <path d="M16 8 V14"/>
    <path d="M32 8 V14"/>
    <path stroke="#2f6b57" d="M18 28 l4 4 l8 -9"/>
  </symbol>
  <symbol id="ic-gallery" viewBox="0 0 48 48" fill="none" stroke="#14323f" stroke-width="2.5" stroke-linecap="round" stroke-linejoin="round">
    <path d="M11 30 V12 a2 2 0 0 1 2 -2 H33"/>
    <rect x="15" y="15" width="24" height="20" rx="2"/>
    <path stroke="#2f6b57" d="M19 33 l5 -6 l4 4 l3 -3 l6 7"/>
    <circle stroke="#2f6b57" cx="22" cy="22" r="2"/>
  </symbol>
  <symbol id="ic-reviews" viewBox="0 0 48 48" fill="none" stroke="#14323f" stroke-width="2.5" stroke-linecap="round" stroke-linejoin="round">
    <path d="M10 13 H34 a3 3 0 0 1 3 3 V27 a3 3 0 0 1 -3 3 H21 l-7 6 v-6 a3 3 0 0 1 -4 -3 V16 a3 3 0 0 1 3 -3 z"/>
    <path stroke="#2f6b57" d="M22.5 16.5 l1.5 3.2 l3.6 0.4 l-2.7 2.4 l0.8 3.5 l-3.2 -1.8 l-3.2 1.8 l0.8 -3.5 l-2.7 -2.4 l3.6 -0.4 z"/>
  </symbol>
  <symbol id="ic-chatbot" viewBox="0 0 48 48" fill="none" stroke="#14323f" stroke-width="2.5" stroke-linecap="round" stroke-linejoin="round">
    <path d="M10 13 H33 a3 3 0 0 1 3 3 V27 a3 3 0 0 1 -3 3 H20 l-6 5 v-5 a3 3 0 0 1 -4 -3 V16 a3 3 0 0 1 3 -3 z"/>
    <circle stroke="#2f6b57" cx="18" cy="21" r="1.6"/>
    <circle stroke="#2f6b57" cx="27" cy="21" r="1.6"/>
    <path stroke="#2f6b57" d="M18.5 25.5 H26.5"/>
    <path stroke="#2f6b57" d="M38 10 l1 2.6 l2.6 1 l-2.6 1 l-1 2.6 l-1 -2.6 l-2.6 -1 l2.6 -1 z"/>
  </symbol>
  <symbol id="ic-contact" viewBox="0 0 48 48" fill="none" stroke="#14323f" stroke-width="2.5" stroke-linecap="round" stroke-linejoin="round">
    <rect x="8" y="12" width="32" height="24" rx="3"/>
    <path stroke="#2f6b57" d="M9 15 L24 26 L39 15"/>
  </symbol>
  <symbol id="ic-shop" viewBox="0 0 48 48" fill="none" stroke="#14323f" stroke-width="2.5" stroke-linecap="round" stroke-linejoin="round">
    <path d="M13 16 H35 L33 39 H15 Z"/>
    <path stroke="#2f6b57" d="M18 18 V14 a6 6 0 0 1 12 0 V18"/>
  </symbol>
  <symbol id="ic-quote" viewBox="0 0 48 48" fill="none" stroke="#14323f" stroke-width="2.5" stroke-linecap="round" stroke-linejoin="round">
    <rect x="12" y="9" width="24" height="32" rx="3"/>
    <path d="M18 9 v-2 a2 2 0 0 1 2 -2 h8 a2 2 0 0 1 2 2 v2"/>
    <path stroke="#2f6b57" d="M24 16 v13"/>
    <path stroke="#2f6b57" d="M28 19 a3 3 0 0 0 -4 -2 a2.6 2.6 0 0 0 0 4.6 a2.6 2.6 0 0 1 0 4.6 a3 3 0 0 1 -4 -2"/>
  </symbol>
</svg>
